solid OpenSCAD_Model
  facet normal -1 0 0
    outer loop
      vertex 0 -70 0
      vertex 0 11.7475 3
      vertex 0 11.7475 0
    endloop
  endfacet
  facet normal -1 -0 0
    outer loop
      vertex 0 11.7475 3
      vertex 0 -70 0
      vertex 0 -70 3
    endloop
  endfacet
  facet normal -1 0 0
    outer loop
      vertex 0 13.9569 0
      vertex 0 45 3
      vertex 0 45 0
    endloop
  endfacet
  facet normal -1 -0 0
    outer loop
      vertex 0 45 3
      vertex 0 13.9569 0
      vertex 0 13.9569 3
    endloop
  endfacet
  facet normal -1 0 0
    outer loop
      vertex 0 50 0
      vertex 0 70 3
      vertex 0 70 0
    endloop
  endfacet
  facet normal -1 -0 0
    outer loop
      vertex 0 70 3
      vertex 0 50 0
      vertex 0 50 3
    endloop
  endfacet
  facet normal 0 0 1
    outer loop
      vertex 0 13.9569 3
      vertex -0.7101 13.6985 3
      vertex 0 11.7475 3
    endloop
  endfacet
  facet normal -0 0 1
    outer loop
      vertex -18 50 3
      vertex 0 45 3
      vertex 0 50 3
    endloop
  endfacet
  facet normal 0 0 1
    outer loop
      vertex -18 50 3
      vertex -23 45 3
      vertex 0 45 3
    endloop
  endfacet
  facet normal 0 0 1
    outer loop
      vertex -23 45 3
      vertex -18 50 3
      vertex -23 75 3
    endloop
  endfacet
  facet normal -0 0 1
    outer loop
      vertex 0 11.7475 3
      vertex 5 10.4559 3
      vertex 0 13.9569 3
    endloop
  endfacet
  facet normal 0 0 1
    outer loop
      vertex 0 -70 3
      vertex 5 -11.8199 3
      vertex 0 11.7475 3
    endloop
  endfacet
  facet normal 0 0 1
    outer loop
      vertex 0 50 3
      vertex 3.8 69.1144 3
      vertex 2.2 69.1144 3
    endloop
  endfacet
  facet normal 0 0 1
    outer loop
      vertex 5 -11.8199 3
      vertex 3.8 -64.1144 3
      vertex 4.6 -65.5 3
    endloop
  endfacet
  facet normal -0 0 1
    outer loop
      vertex 0 70 3
      vertex 2.2 69.1144 3
      vertex 1.4 70.5 3
    endloop
  endfacet
  facet normal 0 0 1
    outer loop
      vertex 5 -6.49896 3
      vertex 0 11.7475 3
      vertex 5 -11.8199 3
    endloop
  endfacet
  facet normal 0 0 1
    outer loop
      vertex 33 75 3
      vertex 32.5 70 3
      vertex 33 70 3
    endloop
  endfacet
  facet normal -0 0 1
    outer loop
      vertex 27.5 23.9661 3
      vertex 32.5 20 3
      vertex 32.5 70 3
    endloop
  endfacet
  facet normal 0 0 1
    outer loop
      vertex 27.5 23.9661 3
      vertex 32.5 70 3
      vertex 27.5 70 3
    endloop
  endfacet
  facet normal 0 0 1
    outer loop
      vertex 33 75 3
      vertex 27.5 70 3
      vertex 32.5 70 3
    endloop
  endfacet
  facet normal -0 0 1
    outer loop
      vertex 3.8 71.8856 3
      vertex 27.5 70 3
      vertex 33 75 3
    endloop
  endfacet
  facet normal 0 0 1
    outer loop
      vertex 3.8 69.1144 3
      vertex 5 70 3
      vertex 4.6 70.5 3
    endloop
  endfacet
  facet normal 0 0 1
    outer loop
      vertex 0 45 3
      vertex 5 70 3
      vertex 3.8 69.1144 3
    endloop
  endfacet
  facet normal 0 0 1
    outer loop
      vertex 5 70 3
      vertex 0 45 3
      vertex 5 15.7768 3
    endloop
  endfacet
  facet normal 0 0 1
    outer loop
      vertex 0 13.9569 3
      vertex 5 15.7768 3
      vertex 0 45 3
    endloop
  endfacet
  facet normal 0 0 1
    outer loop
      vertex 5 15.7768 3
      vertex 0 13.9569 3
      vertex 5 10.4559 3
    endloop
  endfacet
  facet normal 0 0 1
    outer loop
      vertex 27.5 70 3
      vertex 3.8 71.8856 3
      vertex 5 70 3
    endloop
  endfacet
  facet normal 0 0 1
    outer loop
      vertex 5 70 3
      vertex 3.8 71.8856 3
      vertex 4.6 70.5 3
    endloop
  endfacet
  facet normal -0 0 1
    outer loop
      vertex -23 75 3
      vertex 3.8 71.8856 3
      vertex 33 75 3
    endloop
  endfacet
  facet normal 0 0 1
    outer loop
      vertex 2.2 69.1144 3
      vertex 0 70 3
      vertex 0 50 3
    endloop
  endfacet
  facet normal 0 0 1
    outer loop
      vertex 2.2 71.8856 3
      vertex 0 70 3
      vertex 1.4 70.5 3
    endloop
  endfacet
  facet normal 0 0 1
    outer loop
      vertex 2.2 71.8856 3
      vertex -18 70 3
      vertex 0 70 3
    endloop
  endfacet
  facet normal 0 0 1
    outer loop
      vertex 3.8 71.8856 3
      vertex -23 75 3
      vertex 2.2 71.8856 3
    endloop
  endfacet
  facet normal 0 0 1
    outer loop
      vertex -18 70 3
      vertex -23 75 3
      vertex -18 50 3
    endloop
  endfacet
  facet normal 0 0 1
    outer loop
      vertex 2.2 71.8856 3
      vertex -23 75 3
      vertex -18 70 3
    endloop
  endfacet
  facet normal 0 0 1
    outer loop
      vertex 32.5 20 3
      vertex 27.5 23.9661 3
      vertex 31.2223 20 3
    endloop
  endfacet
  facet normal 0 0 1
    outer loop
      vertex 5 10.4559 3
      vertex 27.5 23.9661 3
      vertex 5 15.7768 3
    endloop
  endfacet
  facet normal 0 0 1
    outer loop
      vertex 27.5 23.9661 3
      vertex 5 10.4559 3
      vertex 31.2223 20 3
    endloop
  endfacet
  facet normal -0 0 1
    outer loop
      vertex 5 -11.8199 3
      vertex 31.1039 -16 3
      vertex 5 -6.49896 3
    endloop
  endfacet
  facet normal 0 0 1
    outer loop
      vertex 31.1039 -16 3
      vertex 5 -11.8199 3
      vertex 28 -20.1912 3
    endloop
  endfacet
  facet normal 0 0 1
    outer loop
      vertex 28 -20.1912 3
      vertex 33 -16 3
      vertex 31.1039 -16 3
    endloop
  endfacet
  facet normal 0 0 1
    outer loop
      vertex 28 -65 3
      vertex 33 -16 3
      vertex 28 -20.1912 3
    endloop
  endfacet
  facet normal 0 0 1
    outer loop
      vertex 33 -16 3
      vertex 28 -65 3
      vertex 33 -70 3
    endloop
  endfacet
  facet normal 0 0 1
    outer loop
      vertex 3.8 -66.8856 3
      vertex 28 -65 3
      vertex 5 -65 3
    endloop
  endfacet
  facet normal 0 0 1
    outer loop
      vertex 5 -11.8199 3
      vertex 4.6 -65.5 3
      vertex 5 -65 3
    endloop
  endfacet
  facet normal 0 0 1
    outer loop
      vertex 3.8 -66.8856 3
      vertex 5 -65 3
      vertex 4.6 -65.5 3
    endloop
  endfacet
  facet normal 0 0 1
    outer loop
      vertex 28 -65 3
      vertex 3.8 -66.8856 3
      vertex 33 -70 3
    endloop
  endfacet
  facet normal 0 0 1
    outer loop
      vertex 0 -70 3
      vertex 3.8 -66.8856 3
      vertex 2.2 -66.8856 3
    endloop
  endfacet
  facet normal 0 0 1
    outer loop
      vertex 3.8 69.1144 3
      vertex 0 50 3
      vertex 0 45 3
    endloop
  endfacet
  facet normal 0 0 1
    outer loop
      vertex 5 10.4559 3
      vertex 0 11.7475 3
      vertex 5 -6.49896 3
    endloop
  endfacet
  facet normal 0 0 1
    outer loop
      vertex 5 -11.8199 3
      vertex 2.2 -64.1144 3
      vertex 3.8 -64.1144 3
    endloop
  endfacet
  facet normal 0 0 1
    outer loop
      vertex 5 -11.8199 3
      vertex 1.4 -65.5 3
      vertex 2.2 -64.1144 3
    endloop
  endfacet
  facet normal 0 0 1
    outer loop
      vertex 3.8 -66.8856 3
      vertex 0 -70 3
      vertex 33 -70 3
    endloop
  endfacet
  facet normal 0 0 1
    outer loop
      vertex 1.4 -65.5 3
      vertex 0 -70 3
      vertex 2.2 -66.8856 3
    endloop
  endfacet
  facet normal 0 0 1
    outer loop
      vertex 5 -11.8199 3
      vertex 0 -70 3
      vertex 1.4 -65.5 3
    endloop
  endfacet
  facet normal 1 -0 0
    outer loop
      vertex 33 -70 3
      vertex 33 -16 0
      vertex 33 -16 3
    endloop
  endfacet
  facet normal 1 0 0
    outer loop
      vertex 33 -16 0
      vertex 33 -70 3
      vertex 33 -70 0
    endloop
  endfacet
  facet normal 0 0 -1
    outer loop
      vertex 27.5 23.9661 0
      vertex 32.5 20 0
      vertex 31.2223 20 0
    endloop
  endfacet
  facet normal 0 0 -1
    outer loop
      vertex 32.5 70 0
      vertex 33 75 0
      vertex 33 70 0
    endloop
  endfacet
  facet normal 0 0 -1
    outer loop
      vertex 32.5 20 0
      vertex 27.5 23.9661 0
      vertex 32.5 70 0
    endloop
  endfacet
  facet normal 0 0 -1
    outer loop
      vertex 27.5 70 0
      vertex 32.5 70 0
      vertex 27.5 23.9661 0
    endloop
  endfacet
  facet normal 0 0 -1
    outer loop
      vertex 32.5 70 0
      vertex 27.5 70 0
      vertex 33 75 0
    endloop
  endfacet
  facet normal 0 0 -1
    outer loop
      vertex 5 70 0
      vertex 33 75 0
      vertex 27.5 70 0
    endloop
  endfacet
  facet normal 0 0 -1
    outer loop
      vertex 5 10.4559 0
      vertex 0 13.9569 0
      vertex 5 15.7768 0
    endloop
  endfacet
  facet normal 0 0 -1
    outer loop
      vertex 0 45 0
      vertex 5 15.7768 0
      vertex 0 13.9569 0
    endloop
  endfacet
  facet normal 0 0 -1
    outer loop
      vertex 5 15.7768 0
      vertex 0 45 0
      vertex 5 70 0
    endloop
  endfacet
  facet normal 0 0 -1
    outer loop
      vertex 0 50 0
      vertex 5 70 0
      vertex 0 45 0
    endloop
  endfacet
  facet normal 0 0 -1
    outer loop
      vertex 0 70 0
      vertex 5 70 0
      vertex 0 50 0
    endloop
  endfacet
  facet normal 0 0 -1
    outer loop
      vertex -23 75 0
      vertex 5 70 0
      vertex 0 70 0
    endloop
  endfacet
  facet normal 0 0 -1
    outer loop
      vertex -23 75 0
      vertex 0 70 0
      vertex -18 70 0
    endloop
  endfacet
  facet normal 0 0 -1
    outer loop
      vertex 5 70 0
      vertex -23 75 0
      vertex 33 75 0
    endloop
  endfacet
  facet normal 0 0 -1
    outer loop
      vertex -23 75 0
      vertex -18 70 0
      vertex -23 45 0
    endloop
  endfacet
  facet normal 0 0 -1
    outer loop
      vertex 0 45 0
      vertex -18 50 0
      vertex 0 50 0
    endloop
  endfacet
  facet normal -0 0 -1
    outer loop
      vertex -18 50 0
      vertex -23 45 0
      vertex -18 70 0
    endloop
  endfacet
  facet normal 0 0 -1
    outer loop
      vertex -23 45 0
      vertex -18 50 0
      vertex 0 45 0
    endloop
  endfacet
  facet normal 0 0 -1
    outer loop
      vertex 0 11.7475 0
      vertex -0.7101 13.6985 0
      vertex 0 13.9569 0
    endloop
  endfacet
  facet normal 0 0 -1
    outer loop
      vertex 28 -65 0
      vertex 33 -16 0
      vertex 33 -70 0
    endloop
  endfacet
  facet normal 0 0 -1
    outer loop
      vertex 33 -16 0
      vertex 28 -65 0
      vertex 28 -20.1912 0
    endloop
  endfacet
  facet normal 0 0 -1
    outer loop
      vertex 33 -70 0
      vertex 5 -65 0
      vertex 28 -65 0
    endloop
  endfacet
  facet normal 0 0 -1
    outer loop
      vertex 0 -70 0
      vertex 5 -11.8199 0
      vertex 5 -65 0
    endloop
  endfacet
  facet normal 0 0 -1
    outer loop
      vertex 0 11.7475 0
      vertex 5 -11.8199 0
      vertex 0 -70 0
    endloop
  endfacet
  facet normal 0 0 -1
    outer loop
      vertex 5 -11.8199 0
      vertex 0 11.7475 0
      vertex 5 -6.49896 0
    endloop
  endfacet
  facet normal 0 0 -1
    outer loop
      vertex 5 -6.49896 0
      vertex 0 11.7475 0
      vertex 5 10.4559 0
    endloop
  endfacet
  facet normal 0 0 -1
    outer loop
      vertex 0 13.9569 0
      vertex 5 10.4559 0
      vertex 0 11.7475 0
    endloop
  endfacet
  facet normal 0 0 -1
    outer loop
      vertex 0 -70 0
      vertex 5 -65 0
      vertex 33 -70 0
    endloop
  endfacet
  facet normal -0 0 -1
    outer loop
      vertex 33 -16 0
      vertex 28 -20.1912 0
      vertex 31.1039 -16 0
    endloop
  endfacet
  facet normal 0 0 -1
    outer loop
      vertex 5 -11.8199 0
      vertex 31.1039 -16 0
      vertex 28 -20.1912 0
    endloop
  endfacet
  facet normal 0 0 -1
    outer loop
      vertex 31.1039 -16 0
      vertex 5 -11.8199 0
      vertex 5 -6.49896 0
    endloop
  endfacet
  facet normal 0 0 -1
    outer loop
      vertex 5 10.4559 0
      vertex 27.5 23.9661 0
      vertex 31.2223 20 0
    endloop
  endfacet
  facet normal 0 0 -1
    outer loop
      vertex 27.5 23.9661 0
      vertex 5 10.4559 0
      vertex 5 15.7768 0
    endloop
  endfacet
  facet normal 0 -1 0
    outer loop
      vertex 0 -70 0
      vertex 33 -70 3
      vertex 0 -70 3
    endloop
  endfacet
  facet normal 0 -1 -0
    outer loop
      vertex 33 -70 3
      vertex 0 -70 0
      vertex 33 -70 0
    endloop
  endfacet
  facet normal 0 1 -0
    outer loop
      vertex 28 -65 0
      vertex 5 -65 3
      vertex 28 -65 3
    endloop
  endfacet
  facet normal 0 1 0
    outer loop
      vertex 5 -65 3
      vertex 28 -65 0
      vertex 5 -65 0
    endloop
  endfacet
  facet normal 1 -0 0
    outer loop
      vertex 5 -65 3
      vertex 5 -11.8199 0
      vertex 5 -11.8199 3
    endloop
  endfacet
  facet normal 1 0 0
    outer loop
      vertex 5 -11.8199 0
      vertex 5 -65 3
      vertex 5 -65 0
    endloop
  endfacet
  facet normal 1 -0 0
    outer loop
      vertex 5 -6.49896 3
      vertex 5 10.4559 0
      vertex 5 10.4559 3
    endloop
  endfacet
  facet normal 1 0 0
    outer loop
      vertex 5 10.4559 0
      vertex 5 -6.49896 3
      vertex 5 -6.49896 0
    endloop
  endfacet
  facet normal 1 -0 0
    outer loop
      vertex 5 15.7768 3
      vertex 5 70 0
      vertex 5 70 3
    endloop
  endfacet
  facet normal 1 0 0
    outer loop
      vertex 5 70 0
      vertex 5 15.7768 3
      vertex 5 15.7768 0
    endloop
  endfacet
  facet normal 0 1 -0
    outer loop
      vertex 33 75 0
      vertex -23 75 3
      vertex 33 75 3
    endloop
  endfacet
  facet normal 0 1 0
    outer loop
      vertex -23 75 3
      vertex 33 75 0
      vertex -23 75 0
    endloop
  endfacet
  facet normal -1 0 0
    outer loop
      vertex 28 -65 0
      vertex 28 -20.1912 3
      vertex 28 -20.1912 0
    endloop
  endfacet
  facet normal -1 -0 0
    outer loop
      vertex 28 -20.1912 3
      vertex 28 -65 0
      vertex 28 -65 3
    endloop
  endfacet
  facet normal 0 1 -0
    outer loop
      vertex 33 -16 0
      vertex 31.1039 -16 3
      vertex 33 -16 3
    endloop
  endfacet
  facet normal 0 1 0
    outer loop
      vertex 31.1039 -16 3
      vertex 33 -16 0
      vertex 31.1039 -16 0
    endloop
  endfacet
  facet normal -0.34202 -0.939693 0
    outer loop
      vertex 5 -11.8199 0
      vertex 28 -20.1912 3
      vertex 5 -11.8199 3
    endloop
  endfacet
  facet normal -0.34202 -0.939693 -0
    outer loop
      vertex 28 -20.1912 3
      vertex 5 -11.8199 0
      vertex 28 -20.1912 0
    endloop
  endfacet
  facet normal 0.34202 0.939693 -0
    outer loop
      vertex 31.1039 -16 0
      vertex 5 -6.49896 3
      vertex 31.1039 -16 3
    endloop
  endfacet
  facet normal 0.34202 0.939693 0
    outer loop
      vertex 5 -6.49896 3
      vertex 31.1039 -16 0
      vertex 5 -6.49896 0
    endloop
  endfacet
  facet normal -0.939693 -0.34202 0
    outer loop
      vertex 0 11.7475 0
      vertex -0.7101 13.6985 3
      vertex -0.7101 13.6985 0
    endloop
  endfacet
  facet normal -0.939693 -0.34202 0
    outer loop
      vertex -0.7101 13.6985 3
      vertex 0 11.7475 0
      vertex 0 11.7475 3
    endloop
  endfacet
  facet normal 0.34202 -0.939693 0
    outer loop
      vertex 5 10.4559 0
      vertex 31.2223 20 3
      vertex 5 10.4559 3
    endloop
  endfacet
  facet normal 0.34202 -0.939693 0
    outer loop
      vertex 31.2223 20 3
      vertex 5 10.4559 0
      vertex 31.2223 20 0
    endloop
  endfacet
  facet normal -0.34202 0.939693 0
    outer loop
      vertex 0 13.9569 0
      vertex -0.7101 13.6985 3
      vertex 0 13.9569 3
    endloop
  endfacet
  facet normal -0.34202 0.939693 0
    outer loop
      vertex -0.7101 13.6985 3
      vertex 0 13.9569 0
      vertex -0.7101 13.6985 0
    endloop
  endfacet
  facet normal -0.34202 0.939693 0
    outer loop
      vertex 27.5 23.9661 0
      vertex 5 15.7768 3
      vertex 27.5 23.9661 3
    endloop
  endfacet
  facet normal -0.34202 0.939693 0
    outer loop
      vertex 5 15.7768 3
      vertex 27.5 23.9661 0
      vertex 5 15.7768 0
    endloop
  endfacet
  facet normal -1 0 0
    outer loop
      vertex 27.5 23.9661 0
      vertex 27.5 70 3
      vertex 27.5 70 0
    endloop
  endfacet
  facet normal -1 -0 0
    outer loop
      vertex 27.5 70 3
      vertex 27.5 23.9661 0
      vertex 27.5 23.9661 3
    endloop
  endfacet
  facet normal 1 -0 0
    outer loop
      vertex 32.5 20 3
      vertex 32.5 70 0
      vertex 32.5 70 3
    endloop
  endfacet
  facet normal 1 0 0
    outer loop
      vertex 32.5 70 0
      vertex 32.5 20 3
      vertex 32.5 20 0
    endloop
  endfacet
  facet normal 0 -1 0
    outer loop
      vertex 31.2223 20 0
      vertex 32.5 20 3
      vertex 31.2223 20 3
    endloop
  endfacet
  facet normal 0 -1 -0
    outer loop
      vertex 32.5 20 3
      vertex 31.2223 20 0
      vertex 32.5 20 0
    endloop
  endfacet
  facet normal 1 -0 0
    outer loop
      vertex 33 70 3
      vertex 33 75 0
      vertex 33 75 3
    endloop
  endfacet
  facet normal 1 0 0
    outer loop
      vertex 33 75 0
      vertex 33 70 3
      vertex 33 70 0
    endloop
  endfacet
  facet normal 0 -1 0
    outer loop
      vertex 32.5 70 0
      vertex 33 70 3
      vertex 32.5 70 3
    endloop
  endfacet
  facet normal 0 -1 -0
    outer loop
      vertex 33 70 3
      vertex 32.5 70 0
      vertex 33 70 0
    endloop
  endfacet
  facet normal 0 -1 0
    outer loop
      vertex 5 70 0
      vertex 27.5 70 3
      vertex 5 70 3
    endloop
  endfacet
  facet normal 0 -1 -0
    outer loop
      vertex 27.5 70 3
      vertex 5 70 0
      vertex 27.5 70 0
    endloop
  endfacet
  facet normal 0.866026 0.499999 0
    outer loop
      vertex 4.6 -65.5 9
      vertex 3.8 -64.1144 3
      vertex 3.8 -64.1144 9
    endloop
  endfacet
  facet normal 0.866026 0.499999 0
    outer loop
      vertex 3.8 -64.1144 3
      vertex 4.6 -65.5 9
      vertex 4.6 -65.5 3
    endloop
  endfacet
  facet normal -0.866026 0.499999 0
    outer loop
      vertex 1.4 -65.5 3
      vertex 2.2 -64.1144 9
      vertex 2.2 -64.1144 3
    endloop
  endfacet
  facet normal -0.866026 0.499999 0
    outer loop
      vertex 2.2 -64.1144 9
      vertex 1.4 -65.5 3
      vertex 1.4 -65.5 9
    endloop
  endfacet
  facet normal 0 1 -0
    outer loop
      vertex 3.8 -64.1144 3
      vertex 2.2 -64.1144 9
      vertex 3.8 -64.1144 9
    endloop
  endfacet
  facet normal 0 1 0
    outer loop
      vertex 2.2 -64.1144 9
      vertex 3.8 -64.1144 3
      vertex 2.2 -64.1144 3
    endloop
  endfacet
  facet normal -0.866026 -0.499999 0
    outer loop
      vertex 2.2 -66.8856 3
      vertex 1.4 -65.5 9
      vertex 1.4 -65.5 3
    endloop
  endfacet
  facet normal -0.866026 -0.499999 0
    outer loop
      vertex 1.4 -65.5 9
      vertex 2.2 -66.8856 3
      vertex 2.2 -66.8856 9
    endloop
  endfacet
  facet normal 0 0 1
    outer loop
      vertex 3.8 -64.1144 9
      vertex 3.8 -66.8856 9
      vertex 4.6 -65.5 9
    endloop
  endfacet
  facet normal -0 0 1
    outer loop
      vertex 2.2 -64.1144 9
      vertex 3.8 -66.8856 9
      vertex 3.8 -64.1144 9
    endloop
  endfacet
  facet normal 0 0 1
    outer loop
      vertex 2.2 -64.1144 9
      vertex 2.2 -66.8856 9
      vertex 3.8 -66.8856 9
    endloop
  endfacet
  facet normal 0 -0 1
    outer loop
      vertex 2.2 -66.8856 9
      vertex 2.2 -64.1144 9
      vertex 1.4 -65.5 9
    endloop
  endfacet
  facet normal 0.866026 -0.499999 0
    outer loop
      vertex 3.8 -66.8856 9
      vertex 4.6 -65.5 3
      vertex 4.6 -65.5 9
    endloop
  endfacet
  facet normal 0.866026 -0.499999 0
    outer loop
      vertex 4.6 -65.5 3
      vertex 3.8 -66.8856 9
      vertex 3.8 -66.8856 3
    endloop
  endfacet
  facet normal 0 -1 0
    outer loop
      vertex 2.2 -66.8856 3
      vertex 3.8 -66.8856 9
      vertex 2.2 -66.8856 9
    endloop
  endfacet
  facet normal 0 -1 -0
    outer loop
      vertex 3.8 -66.8856 9
      vertex 2.2 -66.8856 3
      vertex 3.8 -66.8856 3
    endloop
  endfacet
  facet normal 0.866026 0.499999 0
    outer loop
      vertex 4.6 70.5 9
      vertex 3.8 71.8856 3
      vertex 3.8 71.8856 9
    endloop
  endfacet
  facet normal 0.866026 0.499999 0
    outer loop
      vertex 3.8 71.8856 3
      vertex 4.6 70.5 9
      vertex 4.6 70.5 3
    endloop
  endfacet
  facet normal -0.866026 0.499999 0
    outer loop
      vertex 1.4 70.5 3
      vertex 2.2 71.8856 9
      vertex 2.2 71.8856 3
    endloop
  endfacet
  facet normal -0.866026 0.499999 0
    outer loop
      vertex 2.2 71.8856 9
      vertex 1.4 70.5 3
      vertex 1.4 70.5 9
    endloop
  endfacet
  facet normal 0 1 -0
    outer loop
      vertex 3.8 71.8856 3
      vertex 2.2 71.8856 9
      vertex 3.8 71.8856 9
    endloop
  endfacet
  facet normal 0 1 0
    outer loop
      vertex 2.2 71.8856 9
      vertex 3.8 71.8856 3
      vertex 2.2 71.8856 3
    endloop
  endfacet
  facet normal -0.866026 -0.499999 0
    outer loop
      vertex 2.2 69.1144 3
      vertex 1.4 70.5 9
      vertex 1.4 70.5 3
    endloop
  endfacet
  facet normal -0.866026 -0.499999 0
    outer loop
      vertex 1.4 70.5 9
      vertex 2.2 69.1144 3
      vertex 2.2 69.1144 9
    endloop
  endfacet
  facet normal 0 0 1
    outer loop
      vertex 3.8 71.8856 9
      vertex 3.8 69.1144 9
      vertex 4.6 70.5 9
    endloop
  endfacet
  facet normal -0 0 1
    outer loop
      vertex 2.2 71.8856 9
      vertex 3.8 69.1144 9
      vertex 3.8 71.8856 9
    endloop
  endfacet
  facet normal 0 0 1
    outer loop
      vertex 2.2 71.8856 9
      vertex 2.2 69.1144 9
      vertex 3.8 69.1144 9
    endloop
  endfacet
  facet normal 0 -0 1
    outer loop
      vertex 2.2 69.1144 9
      vertex 2.2 71.8856 9
      vertex 1.4 70.5 9
    endloop
  endfacet
  facet normal 0.866026 -0.499999 0
    outer loop
      vertex 3.8 69.1144 9
      vertex 4.6 70.5 3
      vertex 4.6 70.5 9
    endloop
  endfacet
  facet normal 0.866026 -0.499999 0
    outer loop
      vertex 4.6 70.5 3
      vertex 3.8 69.1144 9
      vertex 3.8 69.1144 3
    endloop
  endfacet
  facet normal 0 -1 0
    outer loop
      vertex 2.2 69.1144 3
      vertex 3.8 69.1144 9
      vertex 2.2 69.1144 9
    endloop
  endfacet
  facet normal 0 -1 -0
    outer loop
      vertex 3.8 69.1144 9
      vertex 2.2 69.1144 3
      vertex 3.8 69.1144 3
    endloop
  endfacet
  facet normal -1 0 0
    outer loop
      vertex -23 45 0
      vertex -23 75 3
      vertex -23 75 0
    endloop
  endfacet
  facet normal -1 -0 0
    outer loop
      vertex -23 75 3
      vertex -23 45 0
      vertex -23 45 3
    endloop
  endfacet
  facet normal 0 -1 0
    outer loop
      vertex -18 70 0
      vertex 0 70 3
      vertex -18 70 3
    endloop
  endfacet
  facet normal 0 -1 -0
    outer loop
      vertex 0 70 3
      vertex -18 70 0
      vertex 0 70 0
    endloop
  endfacet
  facet normal 0 -1 0
    outer loop
      vertex -23 45 0
      vertex 0 45 3
      vertex -23 45 3
    endloop
  endfacet
  facet normal 0 -1 -0
    outer loop
      vertex 0 45 3
      vertex -23 45 0
      vertex 0 45 0
    endloop
  endfacet
  facet normal 0 1 -0
    outer loop
      vertex 0 50 0
      vertex -18 50 3
      vertex 0 50 3
    endloop
  endfacet
  facet normal 0 1 0
    outer loop
      vertex -18 50 3
      vertex 0 50 0
      vertex -18 50 0
    endloop
  endfacet
  facet normal 1 -0 0
    outer loop
      vertex -18 50 3
      vertex -18 70 0
      vertex -18 70 3
    endloop
  endfacet
  facet normal 1 0 0
    outer loop
      vertex -18 70 0
      vertex -18 50 3
      vertex -18 50 0
    endloop
  endfacet
  facet normal -1 0 0
    outer loop
      vertex -50 67 0
      vertex -50 -63 3
      vertex -50 67 3
    endloop
  endfacet
  facet normal -1 0 0
    outer loop
      vertex -50 -70 0
      vertex -50 -63 3
      vertex -50 67 0
    endloop
  endfacet
  facet normal -1 0 0
    outer loop
      vertex -50 -70 8
      vertex -50 -63 3
      vertex -50 -70 0
    endloop
  endfacet
  facet normal -1 0 0
    outer loop
      vertex -50 -63 3
      vertex -50 -70 8
      vertex -50 -63 8
    endloop
  endfacet
  facet normal -1 0 0
    outer loop
      vertex -50 69 0
      vertex -50 70 3
      vertex -50 70 0
    endloop
  endfacet
  facet normal -1 -0 0
    outer loop
      vertex -50 70 3
      vertex -50 69 0
      vertex -50 69 3
    endloop
  endfacet
  facet normal -0 0 1
    outer loop
      vertex -50 -63 8
      vertex -45 -70 8
      vertex -45 -63 8
    endloop
  endfacet
  facet normal 0 0 1
    outer loop
      vertex -45 -70 8
      vertex -50 -63 8
      vertex -50 -70 8
    endloop
  endfacet
  facet normal 1 0 0
    outer loop
      vertex -45 -63 8
      vertex -45 -70 8
      vertex -45 -63 3
    endloop
  endfacet
  facet normal 1 -0 0
    outer loop
      vertex -45 -63 3
      vertex -45 66.9289 0
      vertex -45 66.9289 3
    endloop
  endfacet
  facet normal 1 0 0
    outer loop
      vertex -45 -63 3
      vertex -45 -70 0
      vertex -45 66.9289 0
    endloop
  endfacet
  facet normal 1 0 0
    outer loop
      vertex -45 -70 0
      vertex -45 -63 3
      vertex -45 -70 8
    endloop
  endfacet
  facet normal 0 1 -0
    outer loop
      vertex -45 -63 3
      vertex -50 -63 8
      vertex -45 -63 8
    endloop
  endfacet
  facet normal 0 1 0
    outer loop
      vertex -50 -63 8
      vertex -45 -63 3
      vertex -50 -63 3
    endloop
  endfacet
  facet normal 0 0 -1
    outer loop
      vertex -50 67 0
      vertex -51 68 0
      vertex -50 69 0
    endloop
  endfacet
  facet normal 0 0 -1
    outer loop
      vertex -50 -70 0
      vertex -45 66.9289 0
      vertex -45 -70 0
    endloop
  endfacet
  facet normal -0 0 -1
    outer loop
      vertex -45 66.9289 0
      vertex -50 -70 0
      vertex -50 67 0
    endloop
  endfacet
  facet normal 0 0 -1
    outer loop
      vertex -45 66.9289 0
      vertex -50 67 0
      vertex -49 70 0
    endloop
  endfacet
  facet normal 0 0 -1
    outer loop
      vertex -50 69 0
      vertex -49 70 0
      vertex -50 67 0
    endloop
  endfacet
  facet normal -0 0 -1
    outer loop
      vertex -49 70 0
      vertex -50 69 0
      vertex -50 70 0
    endloop
  endfacet
  facet normal 0 0 -1
    outer loop
      vertex -45 66.9289 0
      vertex -35.4436 83.5564 0
      vertex -31.9081 80.0208 0
    endloop
  endfacet
  facet normal 0 0 -1
    outer loop
      vertex -35.4436 83.5564 0
      vertex -45 66.9289 0
      vertex -49 70 0
    endloop
  endfacet
  facet normal 0 -1 0
    outer loop
      vertex -50 -70 8
      vertex -47.945 -70 6.94986
      vertex -45 -70 8
    endloop
  endfacet
  facet normal 0 -1 0
    outer loop
      vertex -50 -70 8
      vertex -49.3019 -70 5.86777
      vertex -47.945 -70 6.94986
    endloop
  endfacet
  facet normal 0 -1 0
    outer loop
      vertex -50 -70 8
      vertex -49.3019 -70 4.13223
      vertex -49.3019 -70 5.86777
    endloop
  endfacet
  facet normal 0 -1 -0
    outer loop
      vertex -49.3019 -70 4.13223
      vertex -50 -70 0
      vertex -47.945 -70 3.05014
    endloop
  endfacet
  facet normal 0 -1 0
    outer loop
      vertex -50 -70 0
      vertex -49.3019 -70 4.13223
      vertex -50 -70 8
    endloop
  endfacet
  facet normal 0 -1 0
    outer loop
      vertex -46.253 -70 6.56366
      vertex -45 -70 8
      vertex -47.945 -70 6.94986
    endloop
  endfacet
  facet normal 0 -1 0
    outer loop
      vertex -46.0723 -70 6.18838
      vertex -45 -70 8
      vertex -46.253 -70 6.56366
    endloop
  endfacet
  facet normal 0 -1 0
    outer loop
      vertex -45.5 -70 5
      vertex -45 -70 8
      vertex -46.0723 -70 6.18838
    endloop
  endfacet
  facet normal 0 -1 0
    outer loop
      vertex -45 -70 0
      vertex -45.6807 -70 4.62472
      vertex -46.253 -70 3.43634
    endloop
  endfacet
  facet normal 0 -1 0
    outer loop
      vertex -45 -70 0
      vertex -47.945 -70 3.05014
      vertex -50 -70 0
    endloop
  endfacet
  facet normal 0 -1 0
    outer loop
      vertex -45.5 -70 5
      vertex -45 -70 0
      vertex -45 -70 8
    endloop
  endfacet
  facet normal 0 -1 0
    outer loop
      vertex -45.6807 -70 4.62472
      vertex -45 -70 0
      vertex -45.5 -70 5
    endloop
  endfacet
  facet normal 0 -1 0
    outer loop
      vertex -47.945 -70 3.05014
      vertex -45 -70 0
      vertex -46.253 -70 3.43634
    endloop
  endfacet
  facet normal -0.900969 -0 -0.433884
    outer loop
      vertex -46.253 -64 6.56366
      vertex -46.0723 -70 6.18838
      vertex -46.253 -70 6.56366
    endloop
  endfacet
  facet normal -0.222521 0 -0.974928
    outer loop
      vertex -47.945 -70 6.94986
      vertex -46.253 -64 6.56366
      vertex -46.253 -70 6.56366
    endloop
  endfacet
  facet normal -0.222521 0 -0.974928
    outer loop
      vertex -46.253 -64 6.56366
      vertex -47.945 -70 6.94986
      vertex -47.945 -64 6.94986
    endloop
  endfacet
  facet normal -0.900969 0 -0.433884
    outer loop
      vertex -46.0723 -70 6.18838
      vertex -45.5 -64 5
      vertex -45.5 -70 5
    endloop
  endfacet
  facet normal -0.900969 -2.06892e-08 -0.433884
    outer loop
      vertex -45.5 -64 5
      vertex -46.0723 -70 6.18838
      vertex -46.253 -64 6.56366
    endloop
  endfacet
  facet normal 0.62349 0 0.781831
    outer loop
      vertex -49.3019 -64 4.13223
      vertex -47.945 -70 3.05014
      vertex -47.945 -64 3.05014
    endloop
  endfacet
  facet normal 0.62349 0 0.781831
    outer loop
      vertex -47.945 -70 3.05014
      vertex -49.3019 -64 4.13223
      vertex -49.3019 -70 4.13223
    endloop
  endfacet
  facet normal -0.222521 0 0.974928
    outer loop
      vertex -47.945 -64 3.05014
      vertex -46.253 -70 3.43634
      vertex -46.253 -64 3.43634
    endloop
  endfacet
  facet normal -0.222521 0 0.974928
    outer loop
      vertex -46.253 -70 3.43634
      vertex -47.945 -64 3.05014
      vertex -47.945 -70 3.05014
    endloop
  endfacet
  facet normal 0 -1 0
    outer loop
      vertex -49.3019 -64 5.86777
      vertex -46.253 -64 6.56366
      vertex -47.945 -64 6.94986
    endloop
  endfacet
  facet normal 0 -1 0
    outer loop
      vertex -49.3019 -64 5.86777
      vertex -45.5 -64 5
      vertex -46.253 -64 6.56366
    endloop
  endfacet
  facet normal 0 -1 0
    outer loop
      vertex -49.3019 -64 4.13223
      vertex -45.5 -64 5
      vertex -49.3019 -64 5.86777
    endloop
  endfacet
  facet normal 0 -1 0
    outer loop
      vertex -49.3019 -64 4.13223
      vertex -46.253 -64 3.43634
      vertex -45.5 -64 5
    endloop
  endfacet
  facet normal -0 -1 0
    outer loop
      vertex -46.253 -64 3.43634
      vertex -49.3019 -64 4.13223
      vertex -47.945 -64 3.05014
    endloop
  endfacet
  facet normal 0.62349 0 -0.781831
    outer loop
      vertex -49.3019 -70 5.86777
      vertex -47.945 -64 6.94986
      vertex -47.945 -70 6.94986
    endloop
  endfacet
  facet normal 0.62349 0 -0.781831
    outer loop
      vertex -47.945 -64 6.94986
      vertex -49.3019 -70 5.86777
      vertex -49.3019 -64 5.86777
    endloop
  endfacet
  facet normal 1 -0 0
    outer loop
      vertex -49.3019 -70 5.86777
      vertex -49.3019 -64 4.13223
      vertex -49.3019 -64 5.86777
    endloop
  endfacet
  facet normal 1 0 0
    outer loop
      vertex -49.3019 -64 4.13223
      vertex -49.3019 -70 5.86777
      vertex -49.3019 -70 4.13223
    endloop
  endfacet
  facet normal -0.900969 0 0.433884
    outer loop
      vertex -45.6807 -70 4.62472
      vertex -46.253 -64 3.43634
      vertex -46.253 -70 3.43634
    endloop
  endfacet
  facet normal -0.900969 4.13784e-09 0.433884
    outer loop
      vertex -46.253 -64 3.43634
      vertex -45.6807 -70 4.62472
      vertex -45.5 -64 5
    endloop
  endfacet
  facet normal -0.900969 0 0.433884
    outer loop
      vertex -45.5 -70 5
      vertex -45.5 -64 5
      vertex -45.6807 -70 4.62472
    endloop
  endfacet
  facet normal 0 0 1
    outer loop
      vertex -50 69 3
      vertex -51 68 3
      vertex -50 67 3
    endloop
  endfacet
  facet normal 0 0 1
    outer loop
      vertex -35.4436 83.5564 3
      vertex -45 66.9289 3
      vertex -31.9081 80.0208 3
    endloop
  endfacet
  facet normal -0 0 1
    outer loop
      vertex -49 70 3
      vertex -45 66.9289 3
      vertex -35.4436 83.5564 3
    endloop
  endfacet
  facet normal -0 0 1
    outer loop
      vertex -50 67 3
      vertex -45 66.9289 3
      vertex -49 70 3
    endloop
  endfacet
  facet normal 0 0 1
    outer loop
      vertex -50 69 3
      vertex -49 70 3
      vertex -50 70 3
    endloop
  endfacet
  facet normal 0 0 1
    outer loop
      vertex -50 67 3
      vertex -49 70 3
      vertex -50 69 3
    endloop
  endfacet
  facet normal 0 0 1
    outer loop
      vertex -50 -63 3
      vertex -45 66.9289 3
      vertex -50 67 3
    endloop
  endfacet
  facet normal 0 0 1
    outer loop
      vertex -45 66.9289 3
      vertex -50 -63 3
      vertex -45 -63 3
    endloop
  endfacet
  facet normal 0 1 -0
    outer loop
      vertex -49 70 0
      vertex -50 70 3
      vertex -49 70 3
    endloop
  endfacet
  facet normal 0 1 0
    outer loop
      vertex -50 70 3
      vertex -49 70 0
      vertex -50 70 0
    endloop
  endfacet
  facet normal -0.707107 0.707107 0
    outer loop
      vertex -51 68 0
      vertex -50 69 3
      vertex -50 69 0
    endloop
  endfacet
  facet normal -0.707107 0.707107 0
    outer loop
      vertex -50 69 3
      vertex -51 68 0
      vertex -51 68 3
    endloop
  endfacet
  facet normal -0.707107 0.707107 0
    outer loop
      vertex -49 70 0
      vertex -35.4436 83.5564 3
      vertex -35.4436 83.5564 0
    endloop
  endfacet
  facet normal -0.707107 0.707107 0
    outer loop
      vertex -35.4436 83.5564 3
      vertex -49 70 0
      vertex -49 70 3
    endloop
  endfacet
  facet normal 0.707107 -0.707107 0
    outer loop
      vertex -45 66.9289 0
      vertex -31.9081 80.0208 3
      vertex -45 66.9289 3
    endloop
  endfacet
  facet normal 0.707107 -0.707107 0
    outer loop
      vertex -31.9081 80.0208 3
      vertex -45 66.9289 0
      vertex -31.9081 80.0208 0
    endloop
  endfacet
  facet normal 0.707107 0.707106 0
    outer loop
      vertex -31.9081 80.0208 3
      vertex -35.4436 83.5564 0
      vertex -35.4436 83.5564 3
    endloop
  endfacet
  facet normal 0.707107 0.707106 0
    outer loop
      vertex -35.4436 83.5564 0
      vertex -31.9081 80.0208 3
      vertex -31.9081 80.0208 0
    endloop
  endfacet
  facet normal -0.707107 -0.707107 0
    outer loop
      vertex -50 67 0
      vertex -51 68 3
      vertex -51 68 0
    endloop
  endfacet
  facet normal -0.707107 -0.707107 0
    outer loop
      vertex -51 68 3
      vertex -50 67 0
      vertex -50 67 3
    endloop
  endfacet
  facet normal -1 0 0
    outer loop
      vertex -70 68 0
      vertex -70 -63 3
      vertex -70 68 3
    endloop
  endfacet
  facet normal -1 0 0
    outer loop
      vertex -70 -70 0
      vertex -70 -63 3
      vertex -70 68 0
    endloop
  endfacet
  facet normal -1 0 0
    outer loop
      vertex -70 -70 8
      vertex -70 -63 3
      vertex -70 -70 0
    endloop
  endfacet
  facet normal -1 0 0
    outer loop
      vertex -70 -63 3
      vertex -70 -70 8
      vertex -70 -63 8
    endloop
  endfacet
  facet normal -0 0 1
    outer loop
      vertex -70 -63 8
      vertex -65 -70 8
      vertex -65 -63 8
    endloop
  endfacet
  facet normal 0 0 1
    outer loop
      vertex -65 -70 8
      vertex -70 -63 8
      vertex -70 -70 8
    endloop
  endfacet
  facet normal 1 0 0
    outer loop
      vertex -65 -63 8
      vertex -65 -70 8
      vertex -65 -63 3
    endloop
  endfacet
  facet normal 1 -0 0
    outer loop
      vertex -65 -63 3
      vertex -65 69 0
      vertex -65 69 3
    endloop
  endfacet
  facet normal 1 0 0
    outer loop
      vertex -65 -63 3
      vertex -65 -70 0
      vertex -65 69 0
    endloop
  endfacet
  facet normal 1 0 0
    outer loop
      vertex -65 -70 0
      vertex -65 -63 3
      vertex -65 -70 8
    endloop
  endfacet
  facet normal 0 1 -0
    outer loop
      vertex -65 -63 3
      vertex -70 -63 8
      vertex -65 -63 8
    endloop
  endfacet
  facet normal 0 1 0
    outer loop
      vertex -70 -63 8
      vertex -65 -63 3
      vertex -70 -63 3
    endloop
  endfacet
  facet normal 0 0 -1
    outer loop
      vertex -70 68 0
      vertex -65 -70 0
      vertex -70 -70 0
    endloop
  endfacet
  facet normal 0 0 -1
    outer loop
      vertex -65 -70 0
      vertex -70 68 0
      vertex -65 69 0
    endloop
  endfacet
  facet normal 0 0 -1
    outer loop
      vertex -70 68 0
      vertex -64.4645 69.5355 0
      vertex -65 69 0
    endloop
  endfacet
  facet normal 0 0 -1
    outer loop
      vertex -70 68 0
      vertex -80.0208 85.0919 0
      vertex -64.4645 69.5355 0
    endloop
  endfacet
  facet normal 0 -0 -1
    outer loop
      vertex -80.0208 85.0919 0
      vertex -70 68 0
      vertex -83.5564 81.5564 0
    endloop
  endfacet
  facet normal 0 -1 0
    outer loop
      vertex -70 -70 8
      vertex -67.945 -70 6.94986
      vertex -65 -70 8
    endloop
  endfacet
  facet normal 0 -1 0
    outer loop
      vertex -70 -70 8
      vertex -69.3019 -70 5.86777
      vertex -67.945 -70 6.94986
    endloop
  endfacet
  facet normal 0 -1 0
    outer loop
      vertex -70 -70 8
      vertex -69.3019 -70 4.13223
      vertex -69.3019 -70 5.86777
    endloop
  endfacet
  facet normal 0 -1 -0
    outer loop
      vertex -69.3019 -70 4.13223
      vertex -70 -70 0
      vertex -67.945 -70 3.05014
    endloop
  endfacet
  facet normal 0 -1 0
    outer loop
      vertex -70 -70 0
      vertex -69.3019 -70 4.13223
      vertex -70 -70 8
    endloop
  endfacet
  facet normal 0 -1 0
    outer loop
      vertex -66.253 -70 6.56366
      vertex -65 -70 8
      vertex -67.945 -70 6.94986
    endloop
  endfacet
  facet normal 0 -1 0
    outer loop
      vertex -66.0723 -70 6.18838
      vertex -65 -70 8
      vertex -66.253 -70 6.56366
    endloop
  endfacet
  facet normal 0 -1 0
    outer loop
      vertex -65.5 -70 5
      vertex -65 -70 8
      vertex -66.0723 -70 6.18838
    endloop
  endfacet
  facet normal 0 -1 0
    outer loop
      vertex -65 -70 0
      vertex -65.6807 -70 4.62472
      vertex -66.253 -70 3.43634
    endloop
  endfacet
  facet normal 0 -1 0
    outer loop
      vertex -65 -70 0
      vertex -67.945 -70 3.05014
      vertex -70 -70 0
    endloop
  endfacet
  facet normal 0 -1 0
    outer loop
      vertex -65.5 -70 5
      vertex -65 -70 0
      vertex -65 -70 8
    endloop
  endfacet
  facet normal 0 -1 0
    outer loop
      vertex -65.6807 -70 4.62472
      vertex -65 -70 0
      vertex -65.5 -70 5
    endloop
  endfacet
  facet normal 0 -1 0
    outer loop
      vertex -67.945 -70 3.05014
      vertex -65 -70 0
      vertex -66.253 -70 3.43634
    endloop
  endfacet
  facet normal -0.900969 -0 -0.433884
    outer loop
      vertex -66.253 -64 6.56366
      vertex -66.0723 -70 6.18838
      vertex -66.253 -70 6.56366
    endloop
  endfacet
  facet normal -0.222521 0 -0.974928
    outer loop
      vertex -67.945 -70 6.94986
      vertex -66.253 -64 6.56366
      vertex -66.253 -70 6.56366
    endloop
  endfacet
  facet normal -0.222521 0 -0.974928
    outer loop
      vertex -66.253 -64 6.56366
      vertex -67.945 -70 6.94986
      vertex -67.945 -64 6.94986
    endloop
  endfacet
  facet normal -0.900969 0 -0.433884
    outer loop
      vertex -66.0723 -70 6.18838
      vertex -65.5 -64 5
      vertex -65.5 -70 5
    endloop
  endfacet
  facet normal -0.900969 -2.06892e-08 -0.433884
    outer loop
      vertex -65.5 -64 5
      vertex -66.0723 -70 6.18838
      vertex -66.253 -64 6.56366
    endloop
  endfacet
  facet normal 0.62349 0 0.781831
    outer loop
      vertex -69.3019 -64 4.13223
      vertex -67.945 -70 3.05014
      vertex -67.945 -64 3.05014
    endloop
  endfacet
  facet normal 0.62349 0 0.781831
    outer loop
      vertex -67.945 -70 3.05014
      vertex -69.3019 -64 4.13223
      vertex -69.3019 -70 4.13223
    endloop
  endfacet
  facet normal -0.222521 0 0.974928
    outer loop
      vertex -67.945 -64 3.05014
      vertex -66.253 -70 3.43634
      vertex -66.253 -64 3.43634
    endloop
  endfacet
  facet normal -0.222521 0 0.974928
    outer loop
      vertex -66.253 -70 3.43634
      vertex -67.945 -64 3.05014
      vertex -67.945 -70 3.05014
    endloop
  endfacet
  facet normal 0 -1 0
    outer loop
      vertex -69.3019 -64 5.86777
      vertex -66.253 -64 6.56366
      vertex -67.945 -64 6.94986
    endloop
  endfacet
  facet normal 0 -1 0
    outer loop
      vertex -69.3019 -64 5.86777
      vertex -65.5 -64 5
      vertex -66.253 -64 6.56366
    endloop
  endfacet
  facet normal 0 -1 0
    outer loop
      vertex -69.3019 -64 4.13223
      vertex -65.5 -64 5
      vertex -69.3019 -64 5.86777
    endloop
  endfacet
  facet normal 0 -1 0
    outer loop
      vertex -69.3019 -64 4.13223
      vertex -66.253 -64 3.43634
      vertex -65.5 -64 5
    endloop
  endfacet
  facet normal -0 -1 0
    outer loop
      vertex -66.253 -64 3.43634
      vertex -69.3019 -64 4.13223
      vertex -67.945 -64 3.05014
    endloop
  endfacet
  facet normal 0.62349 0 -0.781831
    outer loop
      vertex -69.3019 -70 5.86777
      vertex -67.945 -64 6.94986
      vertex -67.945 -70 6.94986
    endloop
  endfacet
  facet normal 0.62349 0 -0.781831
    outer loop
      vertex -67.945 -64 6.94986
      vertex -69.3019 -70 5.86777
      vertex -69.3019 -64 5.86777
    endloop
  endfacet
  facet normal 1 -0 0
    outer loop
      vertex -69.3019 -70 5.86777
      vertex -69.3019 -64 4.13223
      vertex -69.3019 -64 5.86777
    endloop
  endfacet
  facet normal 1 0 0
    outer loop
      vertex -69.3019 -64 4.13223
      vertex -69.3019 -70 5.86777
      vertex -69.3019 -70 4.13223
    endloop
  endfacet
  facet normal -0.900969 0 0.433884
    outer loop
      vertex -65.6807 -70 4.62472
      vertex -66.253 -64 3.43634
      vertex -66.253 -70 3.43634
    endloop
  endfacet
  facet normal -0.900969 4.13784e-09 0.433884
    outer loop
      vertex -66.253 -64 3.43634
      vertex -65.6807 -70 4.62472
      vertex -65.5 -64 5
    endloop
  endfacet
  facet normal -0.900969 0 0.433884
    outer loop
      vertex -65.5 -70 5
      vertex -65.5 -64 5
      vertex -65.6807 -70 4.62472
    endloop
  endfacet
  facet normal 0 0 1
    outer loop
      vertex -65 69 3
      vertex -70 68 3
      vertex -65 -63 3
    endloop
  endfacet
  facet normal 0 0 1
    outer loop
      vertex -64.4645 69.5355 3
      vertex -70 68 3
      vertex -65 69 3
    endloop
  endfacet
  facet normal 0 0 1
    outer loop
      vertex -80.0208 85.0919 3
      vertex -70 68 3
      vertex -64.4645 69.5355 3
    endloop
  endfacet
  facet normal 0 0 1
    outer loop
      vertex -70 68 3
      vertex -80.0208 85.0919 3
      vertex -83.5564 81.5564 3
    endloop
  endfacet
  facet normal 0 0 1
    outer loop
      vertex -65 -63 3
      vertex -70 68 3
      vertex -70 -63 3
    endloop
  endfacet
  facet normal 0.707107 0.707107 -0
    outer loop
      vertex -64.4645 69.5355 0
      vertex -80.0208 85.0919 3
      vertex -64.4645 69.5355 3
    endloop
  endfacet
  facet normal 0.707107 0.707107 0
    outer loop
      vertex -80.0208 85.0919 3
      vertex -64.4645 69.5355 0
      vertex -80.0208 85.0919 0
    endloop
  endfacet
  facet normal -0.707106 0.707108 0
    outer loop
      vertex -80.0208 85.0919 0
      vertex -83.5564 81.5564 3
      vertex -80.0208 85.0919 3
    endloop
  endfacet
  facet normal -0.707106 0.707108 0
    outer loop
      vertex -83.5564 81.5564 3
      vertex -80.0208 85.0919 0
      vertex -83.5564 81.5564 0
    endloop
  endfacet
  facet normal -0.707107 -0.707107 0
    outer loop
      vertex -70 68 0
      vertex -83.5564 81.5564 3
      vertex -83.5564 81.5564 0
    endloop
  endfacet
  facet normal -0.707107 -0.707107 0
    outer loop
      vertex -83.5564 81.5564 3
      vertex -70 68 0
      vertex -70 68 3
    endloop
  endfacet
  facet normal 0.707107 -0.707107 0
    outer loop
      vertex -65 69 3
      vertex -64.4645 69.5355 0
      vertex -64.4645 69.5355 3
    endloop
  endfacet
  facet normal 0.707107 -0.707107 0
    outer loop
      vertex -64.4645 69.5355 0
      vertex -65 69 3
      vertex -65 69 0
    endloop
  endfacet
endsolid OpenSCAD_Model
